<?xml version="1.0" encoding="UTF-8"?>
<svg width="13px" height="17px" viewBox="0 0 13 17" version="1.1" xmlns="http://www.w3.org/2000/svg" xmlns:xlink="http://www.w3.org/1999/xlink">
    <title>ftm-validator</title>
    <g id="Page-1" stroke="none" stroke-width="1" fill="none" fill-rule="evenodd">
        <g id="Artboard" transform="translate(-11.000000, -6.000000)" fill="#FFFFFF" fill-rule="nonzero">
            <g id="ftm-validator" transform="translate(11.053711, 6.722656)">
                <path d="M5.33231467,0.146675355 C5.70327342,-0.0488917849 6.26772058,-0.0488917849 6.63867933,0.146675355 L10.423985,2.14226748 C10.6474029,2.26004163 10.7701018,2.43555247 10.792082,2.61673583 L10.7956989,2.61673583 L10.7956989,12.6475302 C10.7907703,12.8451758 10.6669186,13.0414925 10.423985,13.1695604 L6.63867933,15.1651557 C6.26772058,15.3607187 5.70327342,15.3607187 5.33231467,15.1651557 L1.54701897,13.1695604 C1.3051068,13.042028 1.18900976,12.8443427 1.18326037,12.6475302 C1.18267013,12.6273392 1.18261845,12.6106985 1.18324247,12.5969932 L1.18326037,2.68427049 C1.18269596,2.67032723 1.18269,2.65644344 1.18324645,2.64261916 L1.18326037,2.61673583 L1.18495159,2.61673583 C1.20176458,2.43354925 1.31889501,2.26252088 1.54701897,2.14226748 L5.33231467,0.146675355 Z M10.1935484,8.19354839 L6.63752297,10.0744079 C6.26710241,10.2703465 5.70347419,10.2703465 5.33305363,10.0744079 L1.78494624,8.19774097 L1.78494624,12.6165428 L5.33305363,14.4832548 C5.54273239,14.5954411 5.76074589,14.7047463 5.97304415,14.7095151 L5.9852883,14.7096807 C6.19716981,14.7103695 6.40287963,14.6026341 6.61146692,14.5006411 L10.1935484,12.600448 L10.1935484,8.19354839 Z M0.589760022,12.4301075 C0.589760022,12.8146367 0.634054667,13.0673777 0.722002688,13.2454236 C0.794897957,13.393008 0.904272344,13.505785 1.10398286,13.6430303 L1.1153826,13.6508094 C1.15921103,13.6806359 1.20749116,13.7118713 1.26626219,13.748564 L1.33556738,13.7913887 L1.5483871,13.920974 L1.24314602,14.4301075 L1.00494594,14.284964 L0.964908237,14.2601582 C0.896035828,14.2172542 0.838950645,14.1804226 0.785705398,14.1441863 C0.216525849,13.7570377 0.00425195699,13.3349427 6.33763441e-05,12.4568581 L0,12.4301075 L0.589760022,12.4301075 Z M5.69892473,5.52688172 C5.67138241,5.53635305 5.64556645,5.5473366 5.62203245,5.55979258 L1.842506,7.56180404 C1.83853935,7.56389331 1.83475725,7.56598256 1.8311577,7.56803204 L1.82795699,7.56988252 L1.83389209,7.57330495 L1.842506,7.5779809 L5.62203245,9.57999237 C5.64556645,9.59244834 5.67138241,9.60343189 5.69892473,9.61290323 L5.69892473,5.52688172 Z M6.30107527,5.52688172 L6.30107527,9.61290323 C6.32863731,9.60343189 6.35445314,9.59244834 6.37798703,9.57999237 L10.1574782,7.5779809 C10.1614468,7.57589163 10.1652368,7.57380239 10.1688284,7.5717529 L10.172043,7.56988252 L10.1661099,7.56648 L10.1574782,7.56180404 L6.37798703,5.55979258 C6.35445314,5.5473366 6.32863731,5.53635305 6.30107527,5.52688172 Z M10.1935484,3.33333333 L6.79569892,5.11827957 L10.1935484,6.90322581 L10.1935484,3.33333333 Z M1.78494624,3.33333333 L1.78494624,6.90322581 L5.1827957,5.11827957 L1.78494624,3.33333333 Z M6.37467716,0.680152989 C6.17796,0.57614972 5.82204198,0.57614972 5.62532484,0.680152989 L1.84251862,2.68007981 C1.83854854,2.68218677 1.83476314,2.684254 1.83116047,2.68632123 L1.82795699,2.68816981 L1.83389723,2.6915688 L1.84251862,2.69625981 L5.62532484,4.69618065 C5.82204198,4.80019785 6.17796,4.80019785 6.37467716,4.69618065 L10.1574655,2.69625981 C10.1614376,2.69415284 10.1652309,2.69208561 10.1688256,2.69003826 L10.172043,2.68816981 L10.1661048,2.68477082 L10.1574655,2.68007981 L6.37467716,0.680152989 Z M10.7568564,0.88172043 L10.9950592,1.02686609 L11.0350908,1.05166594 C11.1039609,1.09455813 11.1610477,1.13140961 11.2142986,1.16762806 C11.7834752,1.55478501 11.9957509,1.97688439 11.999941,2.85496987 L12,2.88172043 L11.4102469,2.88172043 C11.4102469,2.49717108 11.3659466,2.24444961 11.2779951,2.0663837 C11.205112,1.91881303 11.0957382,1.806032 10.8960326,1.66880039 L10.8846231,1.6610054 C10.8407949,1.6311948 10.7925209,1.59995933 10.7337423,1.56325867 L10.6644394,1.52043196 L10.4516129,1.39085443 L10.7568564,0.88172043 Z" id="Shape"></path>
            </g>
        </g>
    </g>
</svg>